<svg width="200" height="67" viewBox="0 0 200 67" fill="none" xmlns="http://www.w3.org/2000/svg">
<path d="M54.2441 15.6074L65.5564 44.0339L68.0048 50.1608H77.9916L63.3995 15.6074H54.2441Z" fill="white"/>
<mask id="mask0_101_426" style="mask-type:luminance" maskUnits="userSpaceOnUse" x="54" y="15" width="24" height="36">
<path d="M54.2441 15.6074L65.5564 44.0339L68.0048 50.1608H77.9916L63.3995 15.6074H54.2441Z" fill="white"/>
</mask>
<g mask="url(#mask0_101_426)">
<path d="M60.1798 5.31448L39.2949 41.5234L72.0542 60.4555L92.939 24.2465L60.1798 5.31448Z" fill="white"/>
</g>
<path d="M2.58088 59.6406H4.16711L6.6922 65.6232H4.92801L4.49541 64.5637H2.20657L1.78317 65.6232H0.0527344L2.57782 59.6406H2.58088ZM4.02291 63.2799L3.36019 61.5908L2.69134 63.2799H4.02291Z" fill="white"/>
<path d="M6.8019 63.3511V63.3358C6.8019 62.0367 7.81132 60.9434 9.25948 60.9434C10.2014 60.9434 10.8273 61.3518 11.217 61.9691L10.1247 62.783C9.90379 62.4759 9.65834 62.2977 9.26868 62.2977C8.75017 62.2977 8.36972 62.7553 8.36972 63.3174V63.3358C8.36972 63.9285 8.74403 64.38 9.28402 64.38C9.66447 64.38 9.90993 64.2018 10.1646 63.9039L11.2415 64.684C10.8181 65.3105 10.2075 65.7374 9.19812 65.7374C7.81745 65.7374 6.79883 64.6502 6.79883 63.3511H6.8019Z" fill="white"/>
<path d="M11.582 64.3093V64.2909C11.582 63.3419 12.303 62.8475 13.38 62.8475C13.8034 62.8475 14.2206 62.9334 14.4814 63.0256V62.9488C14.4814 62.4728 14.1838 62.2025 13.5671 62.2025C13.0824 62.2025 12.7111 62.2946 12.303 62.4574L11.9717 61.3211C12.4902 61.1092 13.0394 60.9648 13.8279 60.9648C14.6164 60.9648 15.2086 61.1614 15.5737 61.5238C15.9204 61.8616 16.0646 62.3376 16.0646 62.9826V65.6207H14.4722V65.1447C14.1593 65.4917 13.7267 65.722 13.1253 65.722C12.2509 65.722 11.582 65.2214 11.582 64.3032V64.3093ZM14.4998 63.9623V63.7504C14.3403 63.6828 14.1102 63.6306 13.8739 63.6306C13.4076 63.6306 13.1376 63.8609 13.1376 64.1988V64.2172C13.1376 64.5304 13.3738 64.7178 13.7052 64.7178C14.1715 64.7178 14.5029 64.4199 14.5029 63.9623H14.4998Z" fill="white"/>
<path d="M16.7207 63.3524V63.337C16.7207 61.8444 17.6534 60.9354 18.7395 60.9354C19.436 60.9354 19.841 61.2486 20.1478 61.5987V59.4336H21.7586V65.6281H20.1478V65.0169C19.8349 65.3977 19.436 65.7294 18.7487 65.7294C17.6626 65.7294 16.7238 64.8204 16.7238 63.3524H16.7207ZM20.1724 63.337V63.3186C20.1724 62.7166 19.7582 62.2836 19.2396 62.2836C18.7211 62.2836 18.2977 62.7074 18.2977 63.3186V63.337C18.2977 63.9482 18.7211 64.3812 19.2396 64.3812C19.7582 64.3812 20.1724 63.9482 20.1724 63.337Z" fill="white"/>
<path d="M22.4336 63.3506V63.3352C22.4336 61.9931 23.3909 60.9336 24.747 60.9336C26.3332 60.9336 27.0604 62.0976 27.0604 63.4458C27.0604 63.5471 27.0604 63.6669 27.0511 63.7775H23.983C24.1088 64.2781 24.4739 64.533 24.974 64.533C25.3545 64.533 25.6613 64.3886 25.9926 64.0662L26.8824 64.8032C26.4406 65.3622 25.8055 65.7369 24.8912 65.7369C23.4491 65.7369 22.4336 64.7787 22.4336 63.3506ZM25.5539 62.9513C25.4956 62.4415 25.198 62.1191 24.7562 62.1191C24.3144 62.1191 24.0444 62.4507 23.9585 62.9513H25.5539Z" fill="white"/>
<path d="M27.752 61.0361H29.3627V61.6626C29.6603 61.2818 30.0837 60.9316 30.7281 60.9316C31.3386 60.9316 31.805 61.2019 32.0504 61.6779C32.4493 61.2203 32.9156 60.9316 33.5845 60.9316C34.5602 60.9316 35.1523 61.5428 35.1523 62.6116V65.6243H33.5415V63.1306C33.5415 62.63 33.2961 62.3659 32.9156 62.3659C32.5352 62.3659 32.2529 62.63 32.2529 63.1306V65.6243H30.6421V63.1306C30.6421 62.63 30.3967 62.3659 30.0162 62.3659C29.6358 62.3659 29.3627 62.63 29.3627 63.1306V65.6243H27.752V61.033V61.0361Z" fill="white"/>
<path d="M35.9824 59.4297H37.6607V60.6182H35.9824V59.4297ZM36.0162 61.0328H37.6269V65.6242H36.0162V61.0328Z" fill="white"/>
<path d="M38.339 63.3511V63.3358C38.339 62.0367 39.3484 60.9434 40.7966 60.9434C41.7385 60.9434 42.3644 61.3518 42.7541 61.9691L41.6618 62.783C41.4409 62.4759 41.1954 62.2977 40.8058 62.2977C40.2873 62.2977 39.9068 62.7553 39.9068 63.3174V63.3358C39.9068 63.9285 40.2811 64.38 40.8211 64.38C41.2016 64.38 41.447 64.2018 41.7017 63.9039L42.7786 64.684C42.3552 65.3105 41.7446 65.7374 40.7352 65.7374C39.3546 65.7374 38.3359 64.6502 38.3359 63.3511H38.339Z" fill="white"/>
<path d="M45.3929 59.6844H47.1325L48.1665 63.1211L49.3109 59.666H50.7253L51.8697 63.1211L52.9037 59.6844H54.6065L52.6214 65.667H51.1886L49.992 62.2458L48.8046 65.667H47.3718L45.3867 59.6844H45.3929Z" fill="white"/>
<path d="M54.8398 61.0358H56.4506V61.9602C56.7145 61.3337 57.1379 60.9252 57.9018 60.959V62.6573H57.7668C56.9262 62.6573 56.4537 63.1426 56.4537 64.2021V65.6271H54.8429V61.0358H54.8398Z" fill="white"/>
<path d="M58.4668 59.4297H60.1451V60.6182H58.4668V59.4297ZM58.5005 61.0328H60.1113V65.6242H58.5005V61.0328Z" fill="white"/>
<path d="M61.2892 64.1994V62.3322H60.7461V61.0331H61.2892V59.8691H62.8999V61.0331H63.9676V62.3322H62.8999V63.8862C62.8999 64.2087 63.0441 64.3438 63.3417 64.3438C63.5534 64.3438 63.7559 64.2854 63.9523 64.1902V65.4555C63.6639 65.6183 63.2834 65.7197 62.8324 65.7197C61.866 65.7197 61.2892 65.2958 61.2892 64.1994Z" fill="white"/>
<path d="M64.6641 59.4297H66.3423V60.6182H64.6641V59.4297ZM64.6978 61.0328H66.3086V65.6242H64.6978V61.0328Z" fill="white"/>
<path d="M67.207 61.0349H68.8178V61.6799C69.1154 61.2991 69.5388 60.9336 70.1923 60.9336C71.168 60.9336 71.751 61.5785 71.751 62.6227V65.6263H70.1402V63.1387C70.1402 62.6381 69.8763 62.3678 69.4959 62.3678C69.1154 62.3678 68.8178 62.6381 68.8178 63.1387V65.6263H67.207V61.0349Z" fill="white"/>
<path d="M72.541 66.4748L73.0595 65.406C73.5504 65.6763 74.0444 65.839 74.6611 65.839C75.4649 65.839 75.8638 65.4398 75.8638 64.7119V64.5338C75.5416 64.9085 75.1182 65.2217 74.4463 65.2217C73.3203 65.2217 72.4121 64.4079 72.4121 63.0904V63.075C72.4121 61.7514 73.3356 60.9375 74.3972 60.9375C75.0845 60.9375 75.4895 61.217 75.8392 61.5824V61.0388H77.45V64.5277C77.45 65.3692 77.2628 65.9527 76.8578 66.3611C76.4436 66.7757 75.7993 67.0061 74.839 67.0061C73.9492 67.0061 73.2037 66.8187 72.541 66.4809V66.4748ZM75.8638 63.0873V63.0719C75.8638 62.5621 75.4741 62.1905 74.9311 62.1905C74.388 62.1905 73.9891 62.5713 73.9891 63.0812V63.0996C73.9891 63.6094 74.3788 63.981 74.9311 63.981C75.4833 63.981 75.8638 63.6002 75.8638 63.0904V63.0873Z" fill="white"/>
<path d="M82.8055 59.6406H84.3917L86.9168 65.6232H85.1526L84.72 64.5637H82.4312L82.0078 65.6232H80.2773L82.8024 59.6406H82.8055ZM84.2475 63.2799L83.5848 61.5908L82.9159 63.2799H84.2475Z" fill="white"/>
<path d="M87.4023 61.0349H89.0131V61.6799C89.3107 61.2991 89.7341 60.9336 90.3877 60.9336C91.3633 60.9336 91.9463 61.5785 91.9463 62.6227V65.6263H90.3355V63.1387C90.3355 62.6381 90.0716 62.3678 89.6912 62.3678C89.3107 62.3678 89.0131 62.6381 89.0131 63.1387V65.6263H87.4023V61.0349Z" fill="white"/>
<path d="M92.6094 63.3524V63.337C92.6094 61.8444 93.5421 60.9354 94.6282 60.9354C95.3247 60.9354 95.7297 61.2486 96.0365 61.5987V59.4336H97.6473V65.6281H96.0365V65.0169C95.7235 65.3977 95.3247 65.7294 94.6374 65.7294C93.5513 65.7294 92.6124 64.8204 92.6124 63.3524H92.6094ZM96.061 63.337V63.3186C96.061 62.7166 95.6468 62.2836 95.1283 62.2836C94.6098 62.2836 94.1864 62.7074 94.1864 63.3186V63.337C94.1864 63.9482 94.6098 64.3812 95.1283 64.3812C95.6468 64.3812 96.061 63.9482 96.061 63.337Z" fill="white"/>
<path d="M100.951 59.6836H103.759C104.667 59.6836 105.293 59.9201 105.691 60.3285C106.038 60.6694 106.216 61.127 106.216 61.7105V61.729C106.216 62.638 105.731 63.24 104.995 63.5532L106.412 65.6232H104.513L103.317 63.8235H102.596V65.6232H100.951V59.6836ZM103.682 62.5367C104.24 62.5367 104.562 62.2664 104.562 61.8334V61.818C104.562 61.3512 104.222 61.1147 103.673 61.1147H102.596V62.5398H103.682V62.5367Z" fill="white"/>
<path d="M106.682 63.3506V63.3352C106.682 61.9931 107.639 60.9336 108.995 60.9336C110.581 60.9336 111.308 62.0976 111.308 63.4458C111.308 63.5471 111.308 63.6669 111.299 63.7775H108.231C108.357 64.2781 108.722 64.533 109.222 64.533C109.603 64.533 109.909 64.3886 110.241 64.0662L111.13 64.8032C110.689 65.3622 110.054 65.7369 109.139 65.7369C107.697 65.7369 106.682 64.7787 106.682 63.3506ZM109.802 62.9513C109.744 62.4415 109.446 62.1191 109.004 62.1191C108.562 62.1191 108.292 62.4507 108.207 62.9513H109.802Z" fill="white"/>
<path d="M111.65 65.0506L112.252 64.074C112.776 64.421 113.353 64.5991 113.829 64.5991C114.108 64.5991 114.237 64.5131 114.237 64.3534V64.3381C114.237 64.16 113.982 64.0832 113.5 63.9481C112.592 63.7116 111.871 63.4045 111.871 62.4801V62.4616C111.871 61.485 112.651 60.9414 113.712 60.9414C114.381 60.9414 115.078 61.138 115.602 61.4758L115.05 62.4954C114.574 62.2313 114.059 62.0716 113.694 62.0716C113.448 62.0716 113.319 62.1637 113.319 62.2927V62.3111C113.319 62.4893 113.583 62.5753 114.065 62.7196C114.973 62.9745 115.694 63.2878 115.694 64.1784V64.1968C115.694 65.2072 114.939 65.7324 113.82 65.7324C113.049 65.7324 112.285 65.5113 111.65 65.0537V65.0506Z" fill="white"/>
<path d="M116.17 63.3506V63.3352C116.17 61.9931 117.127 60.9336 118.483 60.9336C120.07 60.9336 120.797 62.0976 120.797 63.4458C120.797 63.5471 120.797 63.6669 120.787 63.7775H117.719C117.845 64.2781 118.21 64.533 118.71 64.533C119.091 64.533 119.398 64.3886 119.729 64.0662L120.619 64.8032C120.177 65.3622 119.542 65.7369 118.628 65.7369C117.185 65.7369 116.17 64.7787 116.17 63.3506ZM119.29 62.9513C119.232 62.4415 118.934 62.1191 118.493 62.1191C118.051 62.1191 117.781 62.4507 117.695 62.9513H119.29Z" fill="white"/>
<path d="M121.257 64.3093V64.2909C121.257 63.3419 121.978 62.8475 123.055 62.8475C123.478 62.8475 123.896 62.9334 124.156 63.0256V62.9488C124.156 62.4728 123.859 62.2025 123.242 62.2025C122.757 62.2025 122.386 62.2946 121.978 62.4574L121.647 61.3211C122.165 61.1092 122.714 60.9648 123.503 60.9648C124.291 60.9648 124.884 61.1614 125.249 61.5238C125.595 61.8616 125.74 62.3376 125.74 62.9826V65.6207H124.144V65.1447C123.831 65.4917 123.399 65.722 122.797 65.722C121.923 65.722 121.254 65.2214 121.254 64.3032L121.257 64.3093ZM124.175 63.9623V63.7504C124.015 63.6828 123.785 63.6306 123.549 63.6306C123.083 63.6306 122.813 63.8609 122.813 64.1988V64.2172C122.813 64.5304 123.049 64.7178 123.38 64.7178C123.846 64.7178 124.178 64.4199 124.178 63.9623H124.175Z" fill="white"/>
<path d="M126.564 61.0358H128.175V61.9602C128.439 61.3337 128.862 60.9252 129.623 60.959V62.6573H129.488C128.648 62.6573 128.175 63.1426 128.175 64.2021V65.6271H126.564V61.0358Z" fill="white"/>
<path d="M129.929 63.3511V63.3358C129.929 62.0367 130.938 60.9434 132.386 60.9434C133.328 60.9434 133.954 61.3518 134.344 61.9691L133.252 62.783C133.031 62.4759 132.785 62.2977 132.396 62.2977C131.877 62.2977 131.497 62.7553 131.497 63.3174V63.3358C131.497 63.9285 131.871 64.38 132.411 64.38C132.791 64.38 133.037 64.2018 133.292 63.9039L134.368 64.684C133.945 65.3105 133.334 65.7374 132.325 65.7374C130.944 65.7374 129.926 64.6502 129.926 63.3511H129.929Z" fill="white"/>
<path d="M134.939 59.4297H136.55V61.6624C136.848 61.2816 137.271 60.9315 137.925 60.9315C138.9 60.9315 139.483 61.5764 139.483 62.6206V65.6242H137.873V63.1366C137.873 62.636 137.609 62.3657 137.228 62.3657C136.848 62.3657 136.55 62.636 136.55 63.1366V65.6242H134.939V59.4297Z" fill="white"/>
<path d="M142.754 59.6836H145.043C147.163 59.6836 148.393 60.9059 148.393 62.6196V62.638C148.393 64.3517 147.147 65.6263 145.009 65.6263H142.754V59.6867V59.6836ZM145.067 64.1644C146.052 64.1644 146.703 63.6208 146.703 62.6626V62.6472C146.703 61.6983 146.049 61.1455 145.067 61.1455H144.398V64.1675H145.067V64.1644Z" fill="white"/>
<path d="M148.961 63.3506V63.3352C148.961 61.9931 149.918 60.9336 151.274 60.9336C152.861 60.9336 153.588 62.0976 153.588 63.4458C153.588 63.5471 153.588 63.6669 153.578 63.7775H150.51C150.636 64.2781 151.001 64.533 151.501 64.533C151.882 64.533 152.189 64.3886 152.52 64.0662L153.41 64.8032C152.968 65.3622 152.333 65.7369 151.419 65.7369C149.976 65.7369 148.961 64.7787 148.961 63.3506ZM152.081 62.9513C152.023 62.4415 151.725 62.1191 151.284 62.1191C150.842 62.1191 150.572 62.4507 150.486 62.9513H152.081Z" fill="white"/>
<path d="M153.726 61.0352H155.422L156.303 63.7163L157.184 61.0352H158.853L157.021 65.6603H155.554L153.723 61.0352H153.726Z" fill="white"/>
<path d="M158.924 63.3506V63.3352C158.924 61.9931 159.881 60.9336 161.237 60.9336C162.823 60.9336 163.551 62.0976 163.551 63.4458C163.551 63.5471 163.551 63.6669 163.541 63.7775H160.473C160.599 64.2781 160.964 64.533 161.464 64.533C161.845 64.533 162.152 64.3886 162.483 64.0662L163.373 64.8032C162.931 65.3622 162.296 65.7369 161.381 65.7369C159.939 65.7369 158.924 64.7787 158.924 63.3506ZM162.044 62.9513C161.986 62.4415 161.688 62.1191 161.246 62.1191C160.805 62.1191 160.535 62.4507 160.449 62.9513H162.044Z" fill="white"/>
<path d="M164.271 59.4297H165.882V65.6242H164.271V59.4297Z" fill="white"/>
<path d="M166.598 63.3506V63.3352C166.598 62.0269 167.665 60.9336 169.141 60.9336C170.617 60.9336 171.666 62.0116 171.666 63.3168V63.3352C171.666 64.6435 170.599 65.7369 169.123 65.7369C167.647 65.7369 166.598 64.6589 166.598 63.3506ZM170.098 63.3506V63.3352C170.098 62.7763 169.69 62.3003 169.123 62.3003C168.555 62.3003 168.165 62.7671 168.165 63.3199V63.3383C168.165 63.8972 168.574 64.3733 169.141 64.3733C169.709 64.3733 170.098 63.9065 170.098 63.3537V63.3506Z" fill="white"/>
<path d="M172.344 61.0349H173.955V61.6461C174.267 61.2653 174.657 60.9336 175.344 60.9336C176.44 60.9336 177.379 61.8426 177.379 63.3107V63.3291C177.379 64.8217 176.437 65.7307 175.354 65.7307C174.657 65.7307 174.252 65.4175 173.955 65.0673V66.9868H172.344V61.038V61.0349ZM175.795 63.3352V63.3168C175.795 62.7149 175.381 62.2818 174.854 62.2818C174.326 62.2818 173.921 62.7149 173.921 63.3168V63.3352C173.921 63.9464 174.335 64.3794 174.854 64.3794C175.372 64.3794 175.795 63.9556 175.795 63.3352Z" fill="white"/>
<path d="M178.074 61.0361H179.685V61.6626C179.983 61.2818 180.406 60.9316 181.05 60.9316C181.661 60.9316 182.127 61.2019 182.373 61.6779C182.772 61.2203 183.238 60.9316 183.907 60.9316C184.882 60.9316 185.475 61.5428 185.475 62.6116V65.6243H183.864V63.1306C183.864 62.63 183.618 62.3659 183.238 62.3659C182.857 62.3659 182.575 62.63 182.575 63.1306V65.6243H180.964V63.1306C180.964 62.63 180.719 62.3659 180.339 62.3659C179.958 62.3659 179.685 62.63 179.685 63.1306V65.6243H178.074V61.033V61.0361Z" fill="white"/>
<path d="M186.119 63.3506V63.3352C186.119 61.9931 187.076 60.9336 188.433 60.9336C190.019 60.9336 190.746 62.0976 190.746 63.4458C190.746 63.5471 190.746 63.6669 190.737 63.7775H187.669C187.794 64.2781 188.159 64.533 188.66 64.533C189.04 64.533 189.347 64.3886 189.678 64.0662L190.568 64.8032C190.126 65.3622 189.491 65.7369 188.577 65.7369C187.135 65.7369 186.119 64.7787 186.119 63.3506ZM189.239 62.9513C189.181 62.4415 188.884 62.1191 188.442 62.1191C188 62.1191 187.73 62.4507 187.644 62.9513H189.239Z" fill="white"/>
<path d="M191.438 61.0349H193.048V61.6799C193.346 61.2991 193.769 60.9336 194.423 60.9336C195.398 60.9336 195.981 61.5785 195.981 62.6227V65.6263H194.371V63.1387C194.371 62.6381 194.107 62.3678 193.726 62.3678C193.346 62.3678 193.048 62.6381 193.048 63.1387V65.6263H191.438V61.0349Z" fill="white"/>
<path d="M197.092 64.1994V62.3322H196.549V61.0331H197.092V59.8691H198.703V61.0331H199.77V62.3322H198.703V63.8862C198.703 64.2087 198.847 64.3438 199.144 64.3438C199.356 64.3438 199.559 64.2854 199.755 64.1902V65.4555C199.467 65.6183 199.086 65.7197 198.635 65.7197C197.669 65.7197 197.092 65.2958 197.092 64.1994Z" fill="white"/>
<path d="M14.5921 16.2402H23.7474L38.3395 50.7967H28.1533L25.6558 44.6698H12.4352L9.98681 50.7967H0L14.5921 16.2402ZM22.916 37.2683L19.0961 27.5144L15.2272 37.2683H22.916Z" fill="white"/>
<path d="M84.2483 15.6074L69.6562 50.1608H79.6431L82.0914 44.0339L93.4037 15.6074H84.2483Z" fill="white"/>
<mask id="mask1_101_426" style="mask-type:luminance" maskUnits="userSpaceOnUse" x="69" y="15" width="25" height="36">
<path d="M84.2483 15.6074L69.6562 50.1608H79.6431L82.0914 44.0339L93.4037 15.6074H84.2483Z" fill="white"/>
</mask>
<g mask="url(#mask1_101_426)">
<path d="M76.3321 4.92545L54.1426 40.457L86.7334 60.8499L108.923 25.3183L76.3321 4.92545Z" fill="white"/>
</g>
<path d="M63.4729 15.6074L48.8809 50.1608H58.8707L61.3191 44.0339L72.6283 15.6074H63.4729Z" fill="white"/>
<mask id="mask2_101_426" style="mask-type:luminance" maskUnits="userSpaceOnUse" x="48" y="15" width="25" height="36">
<path d="M63.4729 15.6074L48.8809 50.1608H58.8707L61.3191 44.0339L72.6283 15.6074H63.4729Z" fill="white"/>
</mask>
<g mask="url(#mask2_101_426)">
<path d="M56.2587 4.6052L32.9082 39.4277L65.2563 61.1614L88.6068 26.3388L56.2587 4.6052Z" fill="white"/>
</g>
<path d="M105.149 16.2402H114.307L128.899 50.7967H118.713L116.216 44.6698H102.995L100.547 50.7967H90.5566L105.149 16.2402ZM113.473 37.2683L109.653 27.5144L105.784 37.2683H113.473Z" fill="white"/>
<path d="M132.229 16.4863H148.438C153.678 16.4863 157.301 17.8591 159.602 20.2116C161.609 22.171 162.637 24.8183 162.637 28.1997V28.2979C162.637 33.5434 159.845 37.023 155.586 38.835L163.763 50.794H152.794L145.891 40.4013H141.727V50.794H132.229V16.4863ZM147.996 32.9538C151.226 32.9538 153.089 31.3844 153.089 28.8845V28.7862C153.089 26.0898 151.131 24.717 147.947 24.717H141.727V32.9507H147.996V32.9538Z" fill="white"/>
<path d="M167.438 16.4863H180.658C192.9 16.4863 200 23.5438 200 33.4452V33.5434C200 43.4448 192.802 50.7971 180.462 50.7971H167.438V16.4863ZM180.805 42.3668C186.485 42.3668 190.255 39.2312 190.255 33.6909V33.5926C190.255 28.1045 186.485 24.9166 180.805 24.9166H176.936V42.3668H180.805Z" fill="white"/>
<path d="M43.758 15.6074H34.5996L45.9119 44.0339L48.3602 50.1608H58.3501L43.758 15.6074Z" fill="white"/>
<path d="M85.252 5.34993C85.252 2.39549 87.6451 0 90.5967 0C93.5482 0 95.9414 2.39549 95.9414 5.34993C95.9414 8.30436 93.5482 10.6999 90.5967 10.6999C87.6451 10.6999 85.252 8.30436 85.252 5.34993Z" fill="white"/>
<path d="M58.7129 5.34993C58.7129 2.39549 61.106 0 64.0576 0C67.0092 0 69.4023 2.39549 69.4023 5.34993C69.4023 8.30436 67.0092 10.6999 64.0576 10.6999C61.106 10.6999 58.7129 8.30436 58.7129 5.34993Z" fill="white"/>
<path d="M32.1719 5.34993C32.1719 2.39549 34.565 0 37.5166 0C40.4681 0 42.8613 2.39549 42.8613 5.34993C42.8613 8.30436 40.4681 10.6999 37.5166 10.6999C34.565 10.6999 32.1719 8.30436 32.1719 5.34993Z" fill="white"/>
</svg>
