<svg width="243" height="82" viewBox="0 0 243 82" fill="none" xmlns="http://www.w3.org/2000/svg">
<path d="M65.9082 19.3691L79.6512 53.7381L82.6265 61.1429H94.7625L77.0338 19.3691H65.9082Z" fill="url(#paint0_linear_101_13144)"/>
<mask id="mask0_101_13144" style="mask-type:luminance" maskUnits="userSpaceOnUse" x="65" y="19" width="30" height="43">
<path d="M65.9082 19.3691L79.6512 53.7381L82.6265 61.1429H94.7625L77.0338 19.3691H65.9082Z" fill="white"/>
</mask>
<g mask="url(#mask0_101_13144)">
<path d="M73.1217 6.92456L47.7461 50.7012L87.5489 73.5896L112.925 29.813L73.1217 6.92456Z" fill="url(#paint1_linear_101_13144)"/>
</g>
<path d="M3.13099 72.6055H5.05859L8.12708 79.8395H5.98324L5.45753 78.5583H2.67613L2.1616 79.8395H0.0625L3.13099 72.6055ZM4.88335 77.006L4.07801 74.9636L3.26522 77.006H4.88335Z" fill="#0C3F6C"/>
<path d="M8.26154 77.0892V77.0706C8.26154 75.4998 9.48819 74.1777 11.248 74.1777C12.3926 74.1777 13.1532 74.6716 13.6267 75.4181L12.2994 76.4022C12.031 76.0308 11.7327 75.8154 11.2592 75.8154C10.6291 75.8154 10.1668 76.3687 10.1668 77.0483V77.0706C10.1668 77.7873 10.6216 78.3332 11.2778 78.3332C11.7402 78.3332 12.0384 78.1178 12.3479 77.7576L13.6566 78.7008C13.142 79.4584 12.4001 79.9746 11.1734 79.9746C9.49565 79.9746 8.25781 78.66 8.25781 77.0892H8.26154Z" fill="#0C3F6C"/>
<path d="M14.0703 78.2472V78.2249C14.0703 77.0774 14.9465 76.4795 16.2552 76.4795C16.7697 76.4795 17.2768 76.5835 17.5937 76.6949V76.6021C17.5937 76.0265 17.232 75.6997 16.4826 75.6997C15.8935 75.6997 15.4424 75.8111 14.9465 76.0079L14.5438 74.6339C15.1739 74.3777 15.8413 74.2031 16.7995 74.2031C17.7577 74.2031 18.4773 74.4408 18.921 74.879C19.3423 75.2875 19.5175 75.8631 19.5175 76.6429V79.8329H17.5825V79.2573C17.2022 79.6769 16.6765 79.9554 15.9457 79.9554C14.8831 79.9554 14.0703 79.3501 14.0703 78.2398V78.2472ZM17.616 77.8276V77.5713C17.4184 77.4896 17.1425 77.4265 16.8554 77.4265C16.2887 77.4265 15.9606 77.705 15.9606 78.1135V78.1358C15.9606 78.5146 16.2477 78.7411 16.6504 78.7411C17.2171 78.7411 17.6198 78.3809 17.6198 77.8276H17.616Z" fill="#0C3F6C"/>
<path d="M20.3125 77.0881V77.0695C20.3125 75.2648 21.4459 74.1655 22.7658 74.1655C23.6122 74.1655 24.1043 74.5443 24.4771 74.9677V72.3496H26.4346V79.8398H24.4771V79.1009C24.0969 79.5613 23.6122 79.9624 22.777 79.9624C21.4571 79.9624 20.3162 78.8632 20.3162 77.0881H20.3125ZM24.507 77.0695V77.0473C24.507 76.3194 24.0036 75.7958 23.3735 75.7958C22.7434 75.7958 22.2289 76.3083 22.2289 77.0473V77.0695C22.2289 77.8085 22.7434 78.3321 23.3735 78.3321C24.0036 78.3321 24.507 77.8085 24.507 77.0695Z" fill="#0C3F6C"/>
<path d="M27.2578 77.0886V77.07C27.2578 75.4472 28.4211 74.166 30.069 74.166C31.9966 74.166 32.8803 75.5735 32.8803 77.2037C32.8803 77.3263 32.8803 77.4711 32.8691 77.6048H29.1407C29.2935 78.2101 29.7372 78.5183 30.3449 78.5183C30.8073 78.5183 31.1801 78.3438 31.5828 77.9538L32.664 78.8451C32.1271 79.521 31.3554 79.974 30.2443 79.974C28.4919 79.974 27.2578 78.8154 27.2578 77.0886ZM31.0496 76.6058C30.9788 75.9894 30.6171 75.5994 30.0802 75.5994C29.5433 75.5994 29.2152 76.0005 29.1108 76.6058H31.0496Z" fill="#0C3F6C"/>
<path d="M33.7168 74.2884H35.6742V75.0459C36.0359 74.5855 36.5504 74.1621 37.3334 74.1621C38.0753 74.1621 38.642 74.4889 38.9403 75.0645C39.425 74.5112 39.9917 74.1621 40.8045 74.1621C41.9902 74.1621 42.7098 74.9011 42.7098 76.1934V79.8364H40.7523V76.821C40.7523 76.2157 40.4541 75.8963 39.9917 75.8963C39.5294 75.8963 39.1864 76.2157 39.1864 76.821V79.8364H37.229V76.821C37.229 76.2157 36.9307 75.8963 36.4684 75.8963C36.006 75.8963 35.6742 76.2157 35.6742 76.821V79.8364H33.7168V74.2847V74.2884Z" fill="#0C3F6C"/>
<path d="M43.7148 72.3457H45.7543V73.7828H43.7148V72.3457ZM43.7559 74.2842H45.7133V79.8359H43.7559V74.2842Z" fill="#0C3F6C"/>
<path d="M46.5799 77.0892V77.0706C46.5799 75.4998 47.8066 74.1777 49.5664 74.1777C50.711 74.1777 51.4716 74.6716 51.9451 75.4181L50.6178 76.4022C50.3493 76.0308 50.0511 75.8154 49.5776 75.8154C48.9474 75.8154 48.4851 76.3687 48.4851 77.0483V77.0706C48.4851 77.7873 48.94 78.3332 49.5962 78.3332C50.0585 78.3332 50.3568 78.1178 50.6663 77.7576L51.9749 78.7008C51.4604 79.4584 50.7185 79.9746 49.4918 79.9746C47.814 79.9746 46.5762 78.66 46.5762 77.0892H46.5799Z" fill="#0C3F6C"/>
<path d="M55.15 72.6551H57.2641L58.5205 76.8106L59.9112 72.6328H61.63L63.0207 76.8106L64.2772 72.6551H66.3465L63.9342 79.8891H62.193L60.7389 75.7522L59.296 79.8891H57.5549L55.1426 72.6551H55.15Z" fill="#0C3F6C"/>
<path d="M66.627 74.2886H68.5844V75.4063C68.905 74.6488 69.4195 74.1549 70.3442 74.1957V76.2493H70.1801C69.1586 76.2493 68.5844 76.8361 68.5844 78.1172V79.8403H66.627V74.2886Z" fill="#0C3F6C"/>
<path d="M71.0332 72.3457H73.0727V73.7828H71.0332V72.3457ZM71.0742 74.2842H73.0316V79.8359H71.0742V74.2842Z" fill="#0C3F6C"/>
<path d="M74.4646 78.1131V75.8552H73.8047V74.2844H74.4646V72.877H76.422V74.2844H77.7195V75.8552H76.422V77.7343C76.422 78.1242 76.5973 78.2876 76.9589 78.2876C77.2162 78.2876 77.4623 78.217 77.7009 78.1019V79.6319C77.3504 79.8287 76.8881 79.9513 76.34 79.9513C75.1656 79.9513 74.4646 79.4388 74.4646 78.1131Z" fill="#0C3F6C"/>
<path d="M78.5645 72.3457H80.6039V73.7828H78.5645V72.3457ZM78.6055 74.2842H80.5629V79.8359H78.6055V74.2842Z" fill="#0C3F6C"/>
<path d="M81.6562 74.2886H83.6137V75.0684C83.9753 74.6079 84.4899 74.166 85.284 74.166C86.4696 74.166 87.178 74.9459 87.178 76.2085V79.8403H85.2206V76.8323C85.2206 76.227 84.9 75.9002 84.4377 75.9002C83.9753 75.9002 83.6137 76.227 83.6137 76.8323V79.8403H81.6562V74.2886Z" fill="#0C3F6C"/>
<path d="M88.1371 80.8655L88.7672 79.5731C89.3637 79.8999 89.964 80.0967 90.7134 80.0967C91.6903 80.0967 92.1749 79.614 92.1749 78.7339V78.5185C91.7835 78.9715 91.2689 79.3503 90.4524 79.3503C89.0841 79.3503 87.9805 78.3662 87.9805 76.7731V76.7546C87.9805 75.154 89.1027 74.1699 90.3928 74.1699C91.2279 74.1699 91.7201 74.5079 92.1451 74.9498V74.2925H94.1025V78.5111C94.1025 79.5286 93.8751 80.2341 93.383 80.728C92.8796 81.2294 92.0966 81.5079 90.9297 81.5079C89.8484 81.5079 88.9424 81.2814 88.1371 80.8729V80.8655ZM92.1749 76.7694V76.7508C92.1749 76.1344 91.7014 75.6851 91.0415 75.6851C90.3816 75.6851 89.8969 76.1455 89.8969 76.762V76.7843C89.8969 77.4007 90.3704 77.85 91.0415 77.85C91.7126 77.85 92.1749 77.3896 92.1749 76.7731V76.7694Z" fill="#0C3F6C"/>
<path d="M100.607 72.6055H102.535L105.603 79.8395H103.46L102.934 78.5583H100.153L99.638 79.8395H97.5352L100.604 72.6055H100.607ZM102.36 77.006L101.554 74.9636L100.742 77.006H102.36Z" fill="#0C3F6C"/>
<path d="M106.193 74.2886H108.151V75.0684C108.512 74.6079 109.027 74.166 109.821 74.166C111.007 74.166 111.715 74.9459 111.715 76.2085V79.8403H109.758V76.8323C109.758 76.227 109.437 75.9002 108.975 75.9002C108.512 75.9002 108.151 76.227 108.151 76.8323V79.8403H106.193V74.2886Z" fill="#0C3F6C"/>
<path d="M112.516 77.0881V77.0695C112.516 75.2648 113.649 74.1655 114.969 74.1655C115.815 74.1655 116.307 74.5443 116.68 74.9677V72.3496H118.638V79.8398H116.68V79.1009C116.3 79.5613 115.815 79.9624 114.98 79.9624C113.66 79.9624 112.519 78.8632 112.519 77.0881H112.516ZM116.71 77.0695V77.0473C116.71 76.3194 116.207 75.7958 115.577 75.7958C114.947 75.7958 114.432 76.3083 114.432 77.0473V77.0695C114.432 77.8085 114.947 78.3321 115.577 78.3321C116.207 78.3321 116.71 77.8085 116.71 77.0695Z" fill="#0C3F6C"/>
<path d="M122.654 72.6543H126.066C127.169 72.6543 127.93 72.9402 128.415 73.4341C128.836 73.8463 129.052 74.3997 129.052 75.1052V75.1275C129.052 76.2267 128.463 76.9546 127.568 77.3334L129.291 79.8363H126.983L125.529 77.6602H124.653V79.8363H122.654V72.6543ZM125.973 76.1042C126.651 76.1042 127.043 75.7774 127.043 75.2538V75.2352C127.043 74.6708 126.629 74.3848 125.961 74.3848H124.653V76.1079H125.973V76.1042Z" fill="#0C3F6C"/>
<path d="M129.615 77.0886V77.07C129.615 75.4472 130.778 74.166 132.426 74.166C134.354 74.166 135.238 75.5735 135.238 77.2037C135.238 77.3263 135.238 77.4711 135.227 77.6048H131.498C131.651 78.2101 132.095 78.5183 132.702 78.5183C133.165 78.5183 133.538 78.3438 133.94 77.9538L135.021 78.8451C134.485 79.521 133.713 79.974 132.602 79.974C130.849 79.974 129.615 78.8154 129.615 77.0886ZM133.407 76.6058C133.336 75.9894 132.975 75.5994 132.438 75.5994C131.901 75.5994 131.573 76.0005 131.468 76.6058H133.407Z" fill="#0C3F6C"/>
<path d="M135.65 79.1426L136.381 77.9617C137.019 78.3813 137.72 78.5967 138.298 78.5967C138.637 78.5967 138.793 78.4927 138.793 78.2996V78.281C138.793 78.0656 138.484 77.9728 137.899 77.8094C136.795 77.5235 135.919 77.1521 135.919 76.0343V76.012C135.919 74.8311 136.866 74.1738 138.156 74.1738C138.969 74.1738 139.815 74.4115 140.453 74.82L139.781 76.0529C139.204 75.7335 138.577 75.5404 138.134 75.5404C137.835 75.5404 137.679 75.6518 137.679 75.8078V75.8301C137.679 76.0455 137.999 76.1494 138.585 76.324C139.688 76.6322 140.564 77.011 140.564 78.0879V78.1102C140.564 79.332 139.647 79.967 138.286 79.967C137.351 79.967 136.422 79.6996 135.65 79.1463V79.1426Z" fill="#0C3F6C"/>
<path d="M141.143 77.0886V77.07C141.143 75.4472 142.306 74.166 143.954 74.166C145.881 74.166 146.765 75.5735 146.765 77.2037C146.765 77.3263 146.765 77.4711 146.754 77.6048H143.025C143.178 78.2101 143.622 78.5183 144.23 78.5183C144.692 78.5183 145.065 78.3438 145.468 77.9538L146.549 78.8451C146.012 79.521 145.24 79.974 144.129 79.974C142.377 79.974 141.143 78.8154 141.143 77.0886ZM144.934 76.6058C144.864 75.9894 144.502 75.5994 143.965 75.5994C143.428 75.5994 143.1 76.0005 142.996 76.6058H144.934Z" fill="#0C3F6C"/>
<path d="M147.322 78.2472V78.2249C147.322 77.0774 148.198 76.4795 149.507 76.4795C150.021 76.4795 150.529 76.5835 150.845 76.6949V76.6021C150.845 76.0265 150.484 75.6997 149.734 75.6997C149.145 75.6997 148.694 75.8111 148.198 76.0079L147.796 74.6339C148.426 74.3777 149.093 74.2031 150.051 74.2031C151.009 74.2031 151.729 74.4408 152.173 74.879C152.594 75.2875 152.769 75.8631 152.769 76.6429V79.8329H150.831V79.2573C150.45 79.6769 149.925 79.9554 149.194 79.9554C148.131 79.9554 147.318 79.3501 147.318 78.2398L147.322 78.2472ZM150.868 77.8276V77.5713C150.674 77.4896 150.394 77.4265 150.107 77.4265C149.54 77.4265 149.212 77.705 149.212 78.1135V78.1358C149.212 78.5146 149.499 78.7411 149.902 78.7411C150.469 78.7411 150.872 78.3809 150.872 77.8276H150.868Z" fill="#0C3F6C"/>
<path d="M153.771 74.2886H155.729V75.4063C156.05 74.6488 156.564 74.1549 157.489 74.1957V76.2493H157.325C156.303 76.2493 155.729 76.8361 155.729 78.1172V79.8403H153.771V74.2886Z" fill="#0C3F6C"/>
<path d="M157.861 77.0892V77.0706C157.861 75.4998 159.088 74.1777 160.848 74.1777C161.992 74.1777 162.753 74.6716 163.226 75.4181L161.899 76.4022C161.631 76.0308 161.332 75.8154 160.859 75.8154C160.229 75.8154 159.766 76.3687 159.766 77.0483V77.0706C159.766 77.7873 160.221 78.3332 160.877 78.3332C161.34 78.3332 161.638 78.1178 161.947 77.7576L163.256 78.7008C162.742 79.4584 162 79.9746 160.773 79.9746C159.095 79.9746 157.857 78.66 157.857 77.0892H157.861Z" fill="#0C3F6C"/>
<path d="M163.949 72.3457H165.907V75.0455C166.268 74.585 166.783 74.1616 167.577 74.1616C168.763 74.1616 169.471 74.9415 169.471 76.2041V79.8359H167.514V76.828C167.514 76.2226 167.193 75.8959 166.731 75.8959C166.268 75.8959 165.907 76.2226 165.907 76.828V79.8359H163.949V72.3457Z" fill="#0C3F6C"/>
<path d="M173.445 72.6543H176.227C178.803 72.6543 180.298 74.1323 180.298 76.2045V76.2267C180.298 78.2989 178.784 79.84 176.186 79.84H173.445V72.658V72.6543ZM176.257 78.0724C177.453 78.0724 178.244 77.4151 178.244 76.2564V76.2379C178.244 75.0904 177.45 74.4219 176.257 74.4219H175.444V78.0761H176.257V78.0724Z" fill="#0C3F6C"/>
<path d="M180.984 77.0886V77.07C180.984 75.4472 182.148 74.166 183.796 74.166C185.723 74.166 186.607 75.5735 186.607 77.2037C186.607 77.3263 186.607 77.4711 186.596 77.6048H182.867C183.02 78.2101 183.464 78.5183 184.072 78.5183C184.534 78.5183 184.907 78.3438 185.309 77.9538L186.391 78.8451C185.854 79.521 185.082 79.974 183.971 79.974C182.218 79.974 180.984 78.8154 180.984 77.0886ZM184.776 76.6058C184.705 75.9894 184.344 75.5994 183.807 75.5994C183.27 75.5994 182.942 76.0005 182.837 76.6058H184.776Z" fill="#0C3F6C"/>
<path d="M186.775 74.2891H188.837L189.907 77.531L190.977 74.2891H193.005L190.78 79.8817H188.997L186.771 74.2891H186.775Z" fill="#0C3F6C"/>
<path d="M193.092 77.0886V77.07C193.092 75.4472 194.255 74.166 195.903 74.166C197.831 74.166 198.714 75.5735 198.714 77.2037C198.714 77.3263 198.714 77.4711 198.703 77.6048H194.975C195.128 78.2101 195.571 78.5183 196.179 78.5183C196.641 78.5183 197.014 78.3438 197.417 77.9538L198.498 78.8451C197.961 79.521 197.189 79.974 196.078 79.974C194.326 79.974 193.092 78.8154 193.092 77.0886ZM196.884 76.6058C196.813 75.9894 196.451 75.5994 195.914 75.5994C195.377 75.5994 195.049 76.0005 194.945 76.6058H196.884Z" fill="#0C3F6C"/>
<path d="M199.59 72.3457H201.547V79.8359H199.59V72.3457Z" fill="#0C3F6C"/>
<path d="M202.412 77.0886V77.07C202.412 75.488 203.71 74.166 205.503 74.166C207.296 74.166 208.571 75.4695 208.571 77.0477V77.07C208.571 78.652 207.274 79.974 205.481 79.974C203.687 79.974 202.412 78.6706 202.412 77.0886ZM206.666 77.0886V77.07C206.666 76.3942 206.17 75.8186 205.481 75.8186C204.791 75.8186 204.317 76.383 204.317 77.0514V77.0737C204.317 77.7496 204.813 78.3252 205.503 78.3252C206.193 78.3252 206.666 77.7607 206.666 77.0923V77.0886Z" fill="#0C3F6C"/>
<path d="M209.396 74.2886H211.354V75.0276C211.734 74.5671 212.208 74.166 213.043 74.166C214.374 74.166 215.515 75.2652 215.515 77.0403V77.0626C215.515 78.8674 214.37 79.9666 213.054 79.9666C212.208 79.9666 211.716 79.5878 211.354 79.1645V81.4854H209.396V74.2923V74.2886ZM213.591 77.07V77.0477C213.591 76.3199 213.088 75.7963 212.446 75.7963C211.805 75.7963 211.313 76.3199 211.313 77.0477V77.07C211.313 77.809 211.816 78.3326 212.446 78.3326C213.076 78.3326 213.591 77.8202 213.591 77.07Z" fill="#0C3F6C"/>
<path d="M216.361 74.2884H218.319V75.0459C218.68 74.5855 219.195 74.1621 219.978 74.1621C220.72 74.1621 221.287 74.4889 221.585 75.0645C222.07 74.5112 222.636 74.1621 223.449 74.1621C224.635 74.1621 225.354 74.9011 225.354 76.1934V79.8364H223.397V76.821C223.397 76.2157 223.099 75.8963 222.636 75.8963C222.174 75.8963 221.831 76.2157 221.831 76.821V79.8364H219.873V76.821C219.873 76.2157 219.575 75.8963 219.113 75.8963C218.651 75.8963 218.319 76.2157 218.319 76.821V79.8364H216.361V74.2847V74.2884Z" fill="#0C3F6C"/>
<path d="M226.137 77.0886V77.07C226.137 75.4472 227.3 74.166 228.948 74.166C230.876 74.166 231.759 75.5735 231.759 77.2037C231.759 77.3263 231.759 77.4711 231.748 77.6048H228.02C228.172 78.2101 228.616 78.5183 229.224 78.5183C229.686 78.5183 230.059 78.3438 230.462 77.9538L231.543 78.8451C231.006 79.521 230.234 79.974 229.123 79.974C227.371 79.974 226.137 78.8154 226.137 77.0886ZM229.929 76.6058C229.858 75.9894 229.496 75.5994 228.959 75.5994C228.422 75.5994 228.094 76.0005 227.99 76.6058H229.929Z" fill="#0C3F6C"/>
<path d="M232.594 74.2886H234.551V75.0684C234.913 74.6079 235.427 74.166 236.221 74.166C237.407 74.166 238.116 74.9459 238.116 76.2085V79.8403H236.158V76.8323C236.158 76.227 235.837 75.9002 235.375 75.9002C234.913 75.9002 234.551 76.227 234.551 76.8323V79.8403H232.594V74.2886Z" fill="#0C3F6C"/>
<path d="M239.465 78.1131V75.8552H238.805V74.2844H239.465V72.877H241.422V74.2844H242.72V75.8552H241.422V77.7343C241.422 78.1242 241.597 78.2876 241.959 78.2876C242.216 78.2876 242.462 78.217 242.701 78.1019V79.6319C242.35 79.8287 241.888 79.9513 241.34 79.9513C240.166 79.9513 239.465 79.4388 239.465 78.1131Z" fill="#0C3F6C"/>
<path d="M17.7287 20.1328H28.8543L46.5829 61.9103H34.2083L31.1733 54.5017H15.1113L12.136 61.9103H0L17.7287 20.1328ZM27.8439 45.5521L23.202 33.7615L18.5004 45.5521H27.8401H27.8439Z" fill="#0C3F6C"/>
<mask id="mask1_101_13144" style="mask-type:luminance" maskUnits="userSpaceOnUse" x="84" y="19" width="30" height="43">
<path d="M102.36 19.3691L84.6309 61.1429H96.7669L99.7422 53.7381L113.485 19.3691H102.36Z" fill="white"/>
</mask>
<g mask="url(#mask1_101_13144)">
<path d="M92.7441 6.45563L65.7852 49.4102L105.383 74.0648L132.342 31.1102L92.7441 6.45563Z" fill="url(#paint2_linear_101_13144)"/>
</g>
<mask id="mask2_101_13144" style="mask-type:luminance" maskUnits="userSpaceOnUse" x="59" y="19" width="30" height="43">
<path d="M77.1193 19.3691L59.3906 61.1429H71.5266L74.5019 53.7381L88.2449 19.3691H77.1193Z" fill="white"/>
</mask>
<g mask="url(#mask2_101_13144)">
<path d="M68.3559 6.06752L39.9844 48.168L79.2846 74.4416L107.656 32.3411L68.3559 6.06752Z" fill="url(#paint3_linear_101_13144)"/>
</g>
<path d="M127.754 20.1328H138.88L156.608 61.9103H144.234L141.199 54.5017H125.137L122.161 61.9103H110.025L127.754 20.1328ZM137.869 45.5521L133.227 33.7615L128.526 45.5521H137.866H137.869Z" fill="#0C3F6C"/>
<path d="M160.658 20.4297H180.352C186.716 20.4297 191.119 22.0896 193.916 24.9342C196.354 27.3035 197.603 30.5046 197.603 34.5932V34.712C197.603 41.051 194.214 45.2585 189.035 47.4532L198.971 61.9138H185.646L177.257 49.3508H172.201V61.9138H160.658V20.4297ZM179.815 40.3418C183.741 40.3418 186.004 38.4441 186.004 35.425V35.3062C186.004 32.0457 183.625 30.3857 179.755 30.3857H172.201V40.3418H179.815Z" fill="#0C3F6C"/>
<path d="M203.433 20.4297H219.495C234.368 20.4297 242.996 28.9634 242.996 40.9322V41.051C242.996 53.0198 234.249 61.9101 219.257 61.9101H203.43V20.4297H203.433ZM219.674 51.7164C226.576 51.7164 231.158 47.9248 231.158 41.2293V41.1105C231.158 34.4743 226.576 30.6234 219.674 30.6234H214.973V51.7201H219.674V51.7164Z" fill="#0C3F6C"/>
<path d="M53.1627 19.3691H42.0371L55.7801 53.7381L58.7554 61.1429H70.8914L53.1627 19.3691Z" fill="#0BBBEF"/>
<path d="M103.58 6.96901C103.58 3.39657 106.488 0.5 110.075 0.5C113.662 0.5 116.57 3.39657 116.57 6.96901C116.57 10.5414 113.662 13.438 110.075 13.438C106.488 13.438 103.58 10.5414 103.58 6.96901Z" fill="#1D71B8"/>
<path d="M71.3359 6.96901C71.3359 3.39657 74.2441 0.5 77.8309 0.5C81.4176 0.5 84.3258 3.39657 84.3258 6.96901C84.3258 10.5414 81.4176 13.438 77.8309 13.438C74.2441 13.438 71.3359 10.5414 71.3359 6.96901Z" fill="#0C3F6C"/>
<path d="M39.0918 6.96901C39.0918 3.39657 42 0.5 45.5867 0.5C49.1735 0.5 52.0816 3.39657 52.0816 6.96901C52.0816 10.5414 49.1735 13.438 45.5867 13.438C42 13.438 39.0918 10.5414 39.0918 6.96901Z" fill="#0BBBEF"/>
<defs>
<linearGradient id="paint0_linear_101_13144" x1="60.3081" y1="29.0281" x2="100.029" y2="52.0559" gradientUnits="userSpaceOnUse">
<stop stop-color="#15BBEE"/>
<stop offset="0.11" stop-color="#15B7EB"/>
<stop offset="0.2" stop-color="#16AEE4"/>
<stop offset="0.28" stop-color="#189ED8"/>
<stop offset="0.35" stop-color="#1A87C8"/>
<stop offset="0.4" stop-color="#1D71B8"/>
<stop offset="0.42" stop-color="#1B7ABE"/>
<stop offset="0.49" stop-color="#1992D0"/>
<stop offset="0.56" stop-color="#17A4DD"/>
<stop offset="0.65" stop-color="#16B1E6"/>
<stop offset="0.76" stop-color="#15B8EC"/>
<stop offset="1" stop-color="#15BBEE"/>
</linearGradient>
<linearGradient id="paint1_linear_101_13144" x1="60.4351" y1="28.8139" x2="100.156" y2="51.838" gradientUnits="userSpaceOnUse">
<stop stop-color="#0BBBEF"/>
<stop offset="0.11" stop-color="#0BB7EC"/>
<stop offset="0.2" stop-color="#0EAEE5"/>
<stop offset="0.28" stop-color="#129ED9"/>
<stop offset="0.35" stop-color="#1787C8"/>
<stop offset="0.4" stop-color="#1D71B8"/>
<stop offset="0.42" stop-color="#1A7ABF"/>
<stop offset="0.49" stop-color="#1492D0"/>
<stop offset="0.56" stop-color="#10A4DE"/>
<stop offset="0.65" stop-color="#0DB1E7"/>
<stop offset="0.76" stop-color="#0BB8ED"/>
<stop offset="1" stop-color="#0BBBEF"/>
</linearGradient>
<linearGradient id="paint2_linear_101_13144" x1="113.908" y1="15.3182" x2="83.0192" y2="63.7246" gradientUnits="userSpaceOnUse">
<stop stop-color="#1D71B8"/>
<stop offset="0.28" stop-color="#1C6FB5"/>
<stop offset="0.41" stop-color="#1C6AAE"/>
<stop offset="0.51" stop-color="#1B62A1"/>
<stop offset="0.6" stop-color="#1A578F"/>
<stop offset="0.67" stop-color="#184877"/>
<stop offset="0.73" stop-color="#16365B"/>
<stop offset="0.79" stop-color="#142139"/>
<stop offset="0.8" stop-color="#141F36"/>
<stop offset="1" stop-color="#141F36"/>
</linearGradient>
<linearGradient id="paint3_linear_101_13144" x1="90.8669" y1="15.3881" x2="59.2847" y2="65.0027" gradientUnits="userSpaceOnUse">
<stop stop-color="#1D71B8"/>
<stop offset="0.28" stop-color="#1C6FB5"/>
<stop offset="0.41" stop-color="#1C6AAE"/>
<stop offset="0.51" stop-color="#1B62A1"/>
<stop offset="0.6" stop-color="#1A578F"/>
<stop offset="0.67" stop-color="#184877"/>
<stop offset="0.73" stop-color="#16365B"/>
<stop offset="0.79" stop-color="#142139"/>
<stop offset="0.8" stop-color="#141F36"/>
<stop offset="1" stop-color="#141F36"/>
</linearGradient>
</defs>
</svg>
