<svg width="16" height="17" viewBox="0 0 16 17" fill="none" xmlns="http://www.w3.org/2000/svg">
<path d="M0.250666 2.11C2.27067 4.7 6.00067 9.5 6.00067 9.5V15.5C6.00067 16.05 6.45067 16.5 7.00067 16.5H9.00067C9.55067 16.5 10.0007 16.05 10.0007 15.5V9.5C10.0007 9.5 13.7207 4.7 15.7407 2.11C15.8553 1.96237 15.9261 1.78553 15.9452 1.59961C15.9642 1.41368 15.9306 1.22615 15.8483 1.05837C15.766 0.890588 15.6382 0.749293 15.4795 0.650577C15.3208 0.55186 15.1376 0.499688 14.9507 0.500001H1.04067C0.210666 0.500001 -0.259334 1.45 0.250666 2.11Z" fill="#F5F5F5"/>
</svg>
