<svg width="15" height="15" viewBox="0 0 15 15" fill="none" xmlns="http://www.w3.org/2000/svg">
<path d="M13.0801 8.99805H8.08008V13.998C8.08008 14.2633 7.97472 14.5176 7.78718 14.7052C7.59965 14.8927 7.34529 14.998 7.08008 14.998C6.81486 14.998 6.56051 14.8927 6.37297 14.7052C6.18544 14.5176 6.08008 14.2633 6.08008 13.998V8.99805H1.08008C0.814862 8.99805 0.560508 8.89269 0.372972 8.70515C0.185435 8.51762 0.0800781 8.26326 0.0800781 7.99805C0.0800781 7.73283 0.185435 7.47848 0.372972 7.29094C0.560508 7.1034 0.814862 6.99805 1.08008 6.99805H6.08008V1.99805C6.08008 1.73283 6.18544 1.47848 6.37297 1.29094C6.56051 1.1034 6.81486 0.998047 7.08008 0.998047C7.34529 0.998047 7.59965 1.1034 7.78718 1.29094C7.97472 1.47848 8.08008 1.73283 8.08008 1.99805V6.99805H13.0801C13.3453 6.99805 13.5996 7.1034 13.7872 7.29094C13.9747 7.47848 14.0801 7.73283 14.0801 7.99805C14.0801 8.26326 13.9747 8.51762 13.7872 8.70515C13.5996 8.89269 13.3453 8.99805 13.0801 8.99805Z" fill="white"/>
</svg>
